# xmcd
#
# Track frame offsets:
#	150
#	17682
#	36885
#	60390
#
# Disc length: 1060 seconds
#
# Revision: 1
# Processed by: cddbd v1.5.2PL0 Copyright (c) Steve Scherf et al.
# Submitted via: EasyCDDAExtractor 7.0.5.4
#
DISCID=27042204
DTITLE=Secret Love - Don't Fly Away [CDm '95)
DYEAR=1995
DGENRE=Eurodance
TTITLE0=Don't Fly Away (Sweet Radio Edit)
TTITLE1=Don't Fly Away (Ultimate Trance Club Mix)
TTITLE2=Don't Fly Away (Extended Club Mix)
TTITLE3=Don't Fly Away (Instrumental Trance Trip)
EXTD=YEAR: 1995
EXTT0=
EXTT1=
EXTT2=
EXTT3=
PLAYORDER=
